<mxfile host="app.diagrams.net" modified="2021-07-10T08:58:33.864Z" agent="5.0 (Macintosh; Intel Mac OS X 10_15_7) AppleWebKit/537.36 (KHTML, like Gecko) Chrome/90.0.4430.212 Safari/537.36" etag="iL7bySgTzP7jPnC3kpqv" version="14.8.5" type="github">
  <diagram name="Page-1" id="c4acf3e9-155e-7222-9cf6-157b1a14988f">
    <mxGraphModel dx="946" dy="1746" grid="1" gridSize="10" guides="1" tooltips="1" connect="1" arrows="1" fold="1" page="1" pageScale="1" pageWidth="850" pageHeight="1100" background="none" math="0" shadow="0">
      <root>
        <mxCell id="0" />
        <mxCell id="1" parent="0" />
        <mxCell id="tguButMhcNonGKpPtIbg-1" value="&lt;p style=&quot;margin: 0px ; margin-top: 4px ; text-align: center&quot;&gt;&lt;br&gt;&lt;b&gt;TaskCycleScalingRuleConfig&lt;/b&gt;&lt;/p&gt;" style="verticalAlign=top;align=left;overflow=fill;fontSize=12;fontFamily=Helvetica;html=1;" vertex="1" parent="1">
          <mxGeometry x="230" y="230" width="270" height="60" as="geometry" />
        </mxCell>
        <mxCell id="tguButMhcNonGKpPtIbg-2" value="&lt;p style=&quot;margin: 0px ; margin-top: 4px ; text-align: center&quot;&gt;&lt;br&gt;&lt;b&gt;TaskCycleScalingRuleConfig.&lt;/b&gt;&lt;b&gt;MessageTypeCycleRuleConfig&lt;/b&gt;&lt;/p&gt;" style="verticalAlign=top;align=left;overflow=fill;fontSize=12;fontFamily=Helvetica;html=1;" vertex="1" parent="1">
          <mxGeometry x="170" y="420" width="410" height="50" as="geometry" />
        </mxCell>
        <mxCell id="tguButMhcNonGKpPtIbg-4" value="1" style="endArrow=open;html=1;endSize=12;startArrow=diamondThin;startSize=14;startFill=1;edgeStyle=orthogonalEdgeStyle;align=left;verticalAlign=bottom;exitX=0.5;exitY=1;exitDx=0;exitDy=0;entryX=0.5;entryY=0;entryDx=0;entryDy=0;" edge="1" parent="1" source="tguButMhcNonGKpPtIbg-1" target="tguButMhcNonGKpPtIbg-2">
          <mxGeometry x="-0.7143" y="15" relative="1" as="geometry">
            <mxPoint x="170" y="540" as="sourcePoint" />
            <mxPoint x="330" y="540" as="targetPoint" />
            <mxPoint as="offset" />
          </mxGeometry>
        </mxCell>
        <mxCell id="tguButMhcNonGKpPtIbg-6" value="n" style="edgeLabel;html=1;align=center;verticalAlign=middle;resizable=0;points=[];" vertex="1" connectable="0" parent="tguButMhcNonGKpPtIbg-4">
          <mxGeometry x="0.8286" y="-1" relative="1" as="geometry">
            <mxPoint x="1" y="-18" as="offset" />
          </mxGeometry>
        </mxCell>
        <mxCell id="tguButMhcNonGKpPtIbg-7" value="&lt;p style=&quot;margin: 0px ; margin-top: 4px ; text-align: center&quot;&gt;&lt;br&gt;&lt;b&gt;MessageTypeScalingRuleConfig&lt;/b&gt;&lt;br&gt;&lt;/p&gt;" style="verticalAlign=top;align=left;overflow=fill;fontSize=12;fontFamily=Helvetica;html=1;" vertex="1" parent="1">
          <mxGeometry x="650" y="230" width="280" height="60" as="geometry" />
        </mxCell>
        <mxCell id="tguButMhcNonGKpPtIbg-8" value="继承" style="endArrow=block;endSize=16;endFill=0;html=1;entryX=0;entryY=0.5;entryDx=0;entryDy=0;exitX=1;exitY=0.5;exitDx=0;exitDy=0;" edge="1" parent="1" source="tguButMhcNonGKpPtIbg-1" target="tguButMhcNonGKpPtIbg-7">
          <mxGeometry width="160" relative="1" as="geometry">
            <mxPoint x="290" y="520" as="sourcePoint" />
            <mxPoint x="450" y="520" as="targetPoint" />
          </mxGeometry>
        </mxCell>
        <mxCell id="tguButMhcNonGKpPtIbg-9" value="&lt;p style=&quot;margin: 0px ; margin-top: 4px ; text-align: center&quot;&gt;&lt;br&gt;&lt;/p&gt;&lt;p style=&quot;margin: 0px ; margin-top: 4px ; text-align: center&quot;&gt;BaseScalingConfig&lt;br&gt;&lt;/p&gt;" style="verticalAlign=middle;align=left;overflow=fill;fontSize=12;fontFamily=Helvetica;html=1;fontStyle=1" vertex="1" parent="1">
          <mxGeometry x="1030" y="230" width="280" height="60" as="geometry" />
        </mxCell>
        <mxCell id="tguButMhcNonGKpPtIbg-10" value="继承" style="endArrow=block;endSize=16;endFill=0;html=1;entryX=0;entryY=0.5;entryDx=0;entryDy=0;exitX=1;exitY=0.5;exitDx=0;exitDy=0;" edge="1" parent="1" source="tguButMhcNonGKpPtIbg-7" target="tguButMhcNonGKpPtIbg-9">
          <mxGeometry width="160" relative="1" as="geometry">
            <mxPoint x="510" y="270" as="sourcePoint" />
            <mxPoint x="660" y="270" as="targetPoint" />
          </mxGeometry>
        </mxCell>
        <mxCell id="tguButMhcNonGKpPtIbg-11" value="&lt;p style=&quot;margin: 0px ; margin-top: 4px ; text-align: center&quot;&gt;&lt;br&gt;&lt;b&gt;TaskCycleScalingRuleConfig.&lt;/b&gt;&lt;b&gt;MessageTypeCycleRuleConfig.&lt;/b&gt;&lt;b&gt;ScalingStrategy&lt;/b&gt;&lt;/p&gt;" style="verticalAlign=top;align=left;overflow=fill;fontSize=12;fontFamily=Helvetica;html=1;" vertex="1" parent="1">
          <mxGeometry x="95" y="590" width="560" height="50" as="geometry" />
        </mxCell>
        <mxCell id="tguButMhcNonGKpPtIbg-14" value="1" style="endArrow=open;html=1;endSize=12;startArrow=diamondThin;startSize=14;startFill=1;edgeStyle=orthogonalEdgeStyle;align=left;verticalAlign=bottom;exitX=0.5;exitY=1;exitDx=0;exitDy=0;entryX=0.5;entryY=0;entryDx=0;entryDy=0;" edge="1" parent="1" source="tguButMhcNonGKpPtIbg-2" target="tguButMhcNonGKpPtIbg-11">
          <mxGeometry x="-0.7143" y="15" relative="1" as="geometry">
            <mxPoint x="700" y="350" as="sourcePoint" />
            <mxPoint x="710" y="480" as="targetPoint" />
            <mxPoint as="offset" />
          </mxGeometry>
        </mxCell>
        <mxCell id="tguButMhcNonGKpPtIbg-15" value="n" style="edgeLabel;html=1;align=center;verticalAlign=middle;resizable=0;points=[];" vertex="1" connectable="0" parent="tguButMhcNonGKpPtIbg-14">
          <mxGeometry x="0.8286" y="-1" relative="1" as="geometry">
            <mxPoint x="1" y="-18" as="offset" />
          </mxGeometry>
        </mxCell>
        <mxCell id="tguButMhcNonGKpPtIbg-16" value="&lt;p style=&quot;margin: 0px ; margin-top: 4px ; text-align: center&quot;&gt;&lt;br&gt;&lt;/p&gt;&lt;p style=&quot;margin: 0px ; margin-top: 4px ; text-align: center&quot;&gt;SystemScalingSettingConfig&lt;br&gt;&lt;/p&gt;" style="verticalAlign=middle;align=left;overflow=fill;fontSize=12;fontFamily=Helvetica;html=1;fontStyle=1" vertex="1" parent="1">
          <mxGeometry x="1030" y="60" width="280" height="60" as="geometry" />
        </mxCell>
        <mxCell id="tguButMhcNonGKpPtIbg-17" value="继承" style="endArrow=block;endSize=16;endFill=0;html=1;entryX=0.5;entryY=0;entryDx=0;entryDy=0;exitX=0.5;exitY=1;exitDx=0;exitDy=0;" edge="1" parent="1" source="tguButMhcNonGKpPtIbg-16" target="tguButMhcNonGKpPtIbg-9">
          <mxGeometry width="160" relative="1" as="geometry">
            <mxPoint x="940" y="270" as="sourcePoint" />
            <mxPoint x="1040" y="270" as="targetPoint" />
          </mxGeometry>
        </mxCell>
        <mxCell id="tguButMhcNonGKpPtIbg-18" value="继承" style="endArrow=block;endSize=16;endFill=0;html=1;entryX=0.5;entryY=1;entryDx=0;entryDy=0;exitX=1;exitY=0.5;exitDx=0;exitDy=0;edgeStyle=orthogonalEdgeStyle;" edge="1" parent="1" source="tguButMhcNonGKpPtIbg-2" target="tguButMhcNonGKpPtIbg-7">
          <mxGeometry width="160" relative="1" as="geometry">
            <mxPoint x="600" y="420" as="sourcePoint" />
            <mxPoint x="750" y="420" as="targetPoint" />
          </mxGeometry>
        </mxCell>
        <mxCell id="tguButMhcNonGKpPtIbg-19" value="&lt;p style=&quot;margin: 0px ; margin-top: 4px ; text-align: center&quot;&gt;&lt;br&gt;&lt;/p&gt;&lt;p style=&quot;margin: 0px ; margin-top: 4px ; text-align: center&quot;&gt;SystemScalingSettingConfig.MessageTypeSetting&lt;br&gt;&lt;/p&gt;" style="verticalAlign=middle;align=left;overflow=fill;fontSize=12;fontFamily=Helvetica;html=1;fontStyle=1" vertex="1" parent="1">
          <mxGeometry x="990" y="-70" width="360" height="60" as="geometry" />
        </mxCell>
        <mxCell id="tguButMhcNonGKpPtIbg-20" value="继承" style="endArrow=block;endSize=16;endFill=0;html=1;entryX=1;entryY=0.5;entryDx=0;entryDy=0;exitX=1;exitY=0.5;exitDx=0;exitDy=0;edgeStyle=orthogonalEdgeStyle;" edge="1" parent="1" source="tguButMhcNonGKpPtIbg-19" target="tguButMhcNonGKpPtIbg-9">
          <mxGeometry width="160" relative="1" as="geometry">
            <mxPoint x="1380" y="-25" as="sourcePoint" />
            <mxPoint x="1180" y="240" as="targetPoint" />
          </mxGeometry>
        </mxCell>
        <mxCell id="tguButMhcNonGKpPtIbg-21" value="1" style="endArrow=open;html=1;endSize=12;startArrow=diamondThin;startSize=14;startFill=1;edgeStyle=orthogonalEdgeStyle;align=left;verticalAlign=bottom;exitX=0.5;exitY=0;exitDx=0;exitDy=0;entryX=0.5;entryY=1;entryDx=0;entryDy=0;" edge="1" parent="1" source="tguButMhcNonGKpPtIbg-16" target="tguButMhcNonGKpPtIbg-19">
          <mxGeometry x="-0.7143" y="15" relative="1" as="geometry">
            <mxPoint x="680" y="-10" as="sourcePoint" />
            <mxPoint x="690" y="120" as="targetPoint" />
            <mxPoint as="offset" />
          </mxGeometry>
        </mxCell>
        <mxCell id="tguButMhcNonGKpPtIbg-22" value="n" style="edgeLabel;html=1;align=center;verticalAlign=middle;resizable=0;points=[];" vertex="1" connectable="0" parent="tguButMhcNonGKpPtIbg-21">
          <mxGeometry x="0.8286" y="-1" relative="1" as="geometry">
            <mxPoint x="1" y="-18" as="offset" />
          </mxGeometry>
        </mxCell>
        <mxCell id="tguButMhcNonGKpPtIbg-23" value="&lt;p style=&quot;margin: 0px ; margin-top: 4px ; text-align: center&quot;&gt;&lt;br&gt;&lt;/p&gt;&lt;p style=&quot;margin: 0px ; margin-top: 4px ; text-align: center&quot;&gt;SystemScalingSettingConfig.ClusterSetting&lt;br&gt;&lt;/p&gt;" style="verticalAlign=middle;align=left;overflow=fill;fontSize=12;fontFamily=Helvetica;html=1;fontStyle=1" vertex="1" parent="1">
          <mxGeometry x="590" y="-70" width="360" height="60" as="geometry" />
        </mxCell>
        <mxCell id="tguButMhcNonGKpPtIbg-24" value="1" style="endArrow=open;html=1;endSize=12;startArrow=diamondThin;startSize=14;startFill=1;edgeStyle=orthogonalEdgeStyle;align=left;verticalAlign=bottom;exitX=0.25;exitY=0;exitDx=0;exitDy=0;entryX=0.5;entryY=1;entryDx=0;entryDy=0;" edge="1" parent="1" source="tguButMhcNonGKpPtIbg-16" target="tguButMhcNonGKpPtIbg-23">
          <mxGeometry x="-0.7143" y="15" relative="1" as="geometry">
            <mxPoint x="1180" y="70" as="sourcePoint" />
            <mxPoint x="1180" as="targetPoint" />
            <mxPoint as="offset" />
          </mxGeometry>
        </mxCell>
        <mxCell id="tguButMhcNonGKpPtIbg-25" value="n" style="edgeLabel;html=1;align=center;verticalAlign=middle;resizable=0;points=[];" vertex="1" connectable="0" parent="tguButMhcNonGKpPtIbg-24">
          <mxGeometry x="0.8286" y="-1" relative="1" as="geometry">
            <mxPoint x="1" y="-18" as="offset" />
          </mxGeometry>
        </mxCell>
        <mxCell id="tguButMhcNonGKpPtIbg-26" value="&lt;p style=&quot;margin: 0px ; margin-top: 4px ; text-align: center&quot;&gt;&lt;br&gt;&lt;/p&gt;&lt;p style=&quot;margin: 0px ; margin-top: 4px ; text-align: center&quot;&gt;SystemScalingSettingConfig.EngineSetting&lt;br&gt;&lt;/p&gt;" style="verticalAlign=middle;align=left;overflow=fill;fontSize=12;fontFamily=Helvetica;html=1;fontStyle=1" vertex="1" parent="1">
          <mxGeometry x="190" y="-70" width="360" height="60" as="geometry" />
        </mxCell>
        <mxCell id="tguButMhcNonGKpPtIbg-27" value="1" style="endArrow=open;html=1;endSize=12;startArrow=diamondThin;startSize=14;startFill=1;edgeStyle=orthogonalEdgeStyle;align=left;verticalAlign=bottom;exitX=0;exitY=0;exitDx=0;exitDy=0;entryX=0.5;entryY=1;entryDx=0;entryDy=0;" edge="1" parent="1" source="tguButMhcNonGKpPtIbg-16" target="tguButMhcNonGKpPtIbg-26">
          <mxGeometry x="-0.7143" y="15" relative="1" as="geometry">
            <mxPoint x="1110" y="70" as="sourcePoint" />
            <mxPoint x="780" as="targetPoint" />
            <mxPoint as="offset" />
          </mxGeometry>
        </mxCell>
        <mxCell id="tguButMhcNonGKpPtIbg-28" value="n" style="edgeLabel;html=1;align=center;verticalAlign=middle;resizable=0;points=[];" vertex="1" connectable="0" parent="tguButMhcNonGKpPtIbg-27">
          <mxGeometry x="0.8286" y="-1" relative="1" as="geometry">
            <mxPoint x="1" y="-18" as="offset" />
          </mxGeometry>
        </mxCell>
        <mxCell id="tguButMhcNonGKpPtIbg-29" value="继承" style="endArrow=block;endSize=16;endFill=0;html=1;entryX=1;entryY=1;entryDx=0;entryDy=0;exitX=0.75;exitY=0;exitDx=0;exitDy=0;edgeStyle=orthogonalEdgeStyle;" edge="1" parent="1" source="tguButMhcNonGKpPtIbg-23" target="tguButMhcNonGKpPtIbg-9">
          <mxGeometry width="160" relative="1" as="geometry">
            <mxPoint x="1360" y="-30" as="sourcePoint" />
            <mxPoint x="1320" y="270" as="targetPoint" />
            <Array as="points">
              <mxPoint x="860" y="-100" />
              <mxPoint x="1420" y="-100" />
              <mxPoint x="1420" y="290" />
            </Array>
          </mxGeometry>
        </mxCell>
        <mxCell id="tguButMhcNonGKpPtIbg-30" value="继承" style="endArrow=block;endSize=16;endFill=0;html=1;entryX=1;entryY=0;entryDx=0;entryDy=0;edgeStyle=orthogonalEdgeStyle;exitX=1;exitY=0;exitDx=0;exitDy=0;" edge="1" parent="1" source="tguButMhcNonGKpPtIbg-26" target="tguButMhcNonGKpPtIbg-9">
          <mxGeometry width="160" relative="1" as="geometry">
            <mxPoint x="730" y="-110" as="sourcePoint" />
            <mxPoint x="1320" y="270" as="targetPoint" />
            <Array as="points">
              <mxPoint x="550" y="-80" />
              <mxPoint x="1380" y="-80" />
              <mxPoint x="1380" y="230" />
            </Array>
          </mxGeometry>
        </mxCell>
      </root>
    </mxGraphModel>
  </diagram>
</mxfile>
